<?xml version="1.0" encoding="UTF-8"?>
<svg width="375px" height="424px" viewBox="0 0 375 424" version="1.1" xmlns="http://www.w3.org/2000/svg" xmlns:xlink="http://www.w3.org/1999/xlink">
    <title>Group</title>
    <g id="Page-1" stroke="none" stroke-width="1" fill="none" fill-rule="evenodd">
        <g id="Group" transform="translate(0, 0.3354)" fill="#ffffff">
            <path d="M124.321515,364.188266 L116.383573,386.352047 C97.4340726,364.133027 84.3932169,348.338721 77.2610064,338.969131 C55.876956,310.876888 43.3686697,287.72309 35.0631712,271.644977 C7.2881546,217.877001 0,164.40417 0,133.425016 C0,87.5718683 27.1638979,54.1671724 57.9120778,33.5227829 C79.2944762,19.1665979 109.227749,8.99861837 122.166595,6.33322286 C136.760128,3.32696298 156.262468,-0.0749427268 187.5,0 C196.684942,0.0244926038 211.994191,1.1292166 233.427749,3.314172 L220.650065,22.6513526 C199.995601,20.8120352 185.479258,20.0345334 177.101037,20.3188475 C162.465481,20.8155036 140.990946,22.9656246 122.166595,28.0195889 C104.414057,32.785793 89.0502255,40.3845386 82.9795466,43.5558747 C70.4358293,50.1087405 17.057994,70.8818059 21.3854854,152.707503 C23.3890897,190.592342 39.0553287,237.759096 71.3745981,291.023262 C77.9853467,301.918187 87.3375178,317.944126 101.897783,337.369296 C106.108203,342.986511 113.582781,351.926167 124.321515,364.188266 Z" id="Path-2"></path>
            <path d="M109.112862,257.112544 L88.5,292.110775 C96.3648099,299.218644 104.768249,304.864891 113.710318,309.049516 C122.652386,313.234141 132.364988,316.065669 142.848124,317.5441 L155.336161,281.077788 C145.767927,278.621998 137.24199,275.454093 129.758351,271.574075 C122.274711,267.694057 115.392881,262.873546 109.112862,257.112544 Z" id="Path-2"></path>
            <path d="M230.822487,97.4316962 L218.033582,134.43402 C225.725392,135.800806 232.986471,138.057416 239.816819,141.20385 C246.647167,144.350284 253.002241,148.366022 258.882039,153.251065 L278.879328,116.438555 C270.337474,110.578026 262.311097,106.162452 254.800196,103.191831 C247.289296,100.221211 239.296726,98.3011659 230.822487,97.4316962 Z" id="Path-2"></path>
            <path d="M246.667674,9.10093761 L190.404085,92.6721555 C174.428036,95.0521594 160.713193,99.3427168 149.259553,105.543827 C132.079094,114.845494 120.304408,131.572037 119.083966,159.446955 C118.51884,172.354424 119.811104,184.347989 122.960757,195.427651 L100.865318,228.743057 L190.404085,228.743057 L130.190106,396.099741 L182.665922,319.932352 C198.648454,318.958083 212.906268,315.416149 225.439364,309.306549 C244.239008,300.142148 261.173281,274.670175 261.173281,252.435366 C261.173281,237.61216 257.508124,226.688575 250.17781,219.664612 L273.245547,186.598201 L183.770241,186.598201 L246.667674,9.10093761 Z" id="Path-2"></path>
            <path d="M263.392877,10.4064648 L256.072654,29.7941763 C270.710889,34.2024865 282.487168,38.7195403 291.401492,43.3453377 C304.772978,50.2840338 327.939471,61.3658656 343.214989,91.4876311 C358.490507,121.609396 354.35122,161.436602 346.45923,191.442289 C341.197903,211.44608 334.421155,230.265182 326.128987,247.899596 C308.371906,282.777576 293.92656,307.9583 282.792949,323.44177 C266.092533,346.666974 265.335753,348.352369 246.278983,367.38041 C227.222212,386.408451 224.726183,386.975175 214.336756,393.249027 C203.94733,399.52288 192.938517,403.133552 183.163388,402.118709 C176.646634,401.442147 166.81279,397.192825 153.661853,389.370743 L142.370639,405.927153 C169.066006,423.716373 191.881028,427.961575 210.815707,418.662758 C239.217725,404.714533 246.32101,396.099741 264.552962,378.543069 C276.707597,366.838621 288.925685,351.924997 301.207227,333.802196 C317.345399,310.104429 330.521676,287.627275 340.736057,266.370735 C356.057629,234.485925 361.238871,217.243748 367.244978,196.374971 C373.251085,175.506195 372.965903,163.728815 374.099188,150.447436 C375.232473,137.166057 373.844713,109.03901 365.827164,91.4876311 C357.809615,73.9362521 353.472344,65.5131754 340.736057,52.2054043 C327.99977,38.8976332 298.413791,22.5834578 286.831927,17.8027077 C279.110684,14.615541 271.297668,12.1501266 263.392877,10.4064648 Z" id="Path-2"></path>
        </g>
    </g>
</svg>
